<svg xmlns="http://www.w3.org/2000/svg" data-name="Layer 1" viewBox="0 0 101 83">
  <g data-name="Layer 2">
    <path fill="#23a9e1" d="M1.06.7l49.52 58.35L99.91 1.06 1.06.7z"/>
    <path fill="#fff" d="M79.84 17.32l-15.19.08c6-6.93 8.7-6.19 15.19-.08zM38.66 22.67h26.68c-2-1.23-6.7-7.06-9.3-4.89-.21.18-7.51-8.85-12.3-4.5-4.18 3.8-6.12-.5-10.86 2.51-5.39 3.57 3.12 5.68 5.78 6.88z"/>
    <path fill="#491213" d="M50.92 0H0v22.46L50.58 84l.34-.43 50.75-60.39V0zm0 57.05l-.34.41L3.71 1.78h94.42z"/>
    <path fill="#491213" d="M50.58 57.46l.34-.41L78.5 24.76c-6.92.95-11.87 6.08-18.61 5-3.39-.56-3.5-2.51-4.47-4.46-.74-1.49-1.93-1.3-3.48-1.91s-2.28-1.73-5.17-1.06c-2.52.6-2.8 4.52-6 4.3-1.69-.13-1.81-2.5-4.24-5.54-6.3-7.57-12.16-6.53-16.25.47z"/>
    <path fill="#23a9e1" d="M46.56 70.9l4.02-6.5 4.01 6.5-4.01 6.51-4.02-6.51z"/>
    <g fill="#fff">
      <path d="M23.28 32.25a2.84 2.84 0 01.81 2.11c-.06.58-.94 1.55-.27 1.85l2.24-2.83c-.6-.15-5.37-5.85-5.44-6.48l-3.16 1.74c.16.66 1.29 0 1.85.05a2.82 2.82 0 012 1.15c-1.72 1.45-5.93 5-6.37 5.09-.23 0-1.09-.6-1.1-.06 0 .26.85 1 1 1.21.75.88 1.49 1.77 2.23 2.65.62-.28-.11-.73.21-1.24s4.9-4.27 6-5.24zM18 25.27c.44-.1.62.43.95-.06l-2.43-2.91c-.37-.45-.84-.92-.71 0 .09.63-6.11 5.67-6.49 5.82s-.76-.41-1.11.1l2.19 2.61c.25.29.48.61.75.88s.21-.67.22-.58c-.09-.52.53-.95.86-1.23A60.17 60.17 0 0118 25.27zM9.24 24.35a3.22 3.22 0 01-4.21-2c-.54-1.83.61-3.76 2.07-4.8s3.59-1 4.37.84a3.59 3.59 0 01-.09 2.5c-.16.5-.6 1 .06 1.29C12.29 21 13.16 20 14 18.85c-1.06-.63-1.52-1.68-2.3-2.59A5.94 5.94 0 008.23 14c-2.87-.4-5.57 2.56-5.79 5.25a5.71 5.71 0 001.25 4c.75 1 1.86 1.62 2.43 2.75a22.12 22.12 0 003.29-1.25 2.09 2.09 0 00-.17-.37zM48.54 60.76c-1.15-.77-4-4.69-4.58-5.34-.1-.13-.22-.26-.33-.39s-.28.22-.24.19c-.18.14.13.57 0 .86-.8 1.24-5.76 5-6 5.17-.56.38-1.16-.16-1.49.31a44.2 44.2 0 003 3.58c.48.08.15-.81.21-1a31.3 31.3 0 013.55-3.21c.34-.28.69.43.89.73a1.76 1.76 0 01.3 1.56c-.12.37-.72.92-.25 1.18.61-.73 2.36-2.76 2.61-3.05s-.57 0-.47-.09a.9.9 0 01-1.06 0c-.1-.07-1.09-1.08-1-1.16a4.58 4.58 0 011.47-1.1c.87-.22 1.59 1.51 1.71 2.13a3.47 3.47 0 01-.07 1.75c-.13.38-.49.69 0 .93l2.14-2.92a.77.77 0 01-.4-.1zM38.31 56.63a5.48 5.48 0 10-7.79-1.07 5.42 5.42 0 007.79 1.07c1.16-.97-.1.07 0 0zm-.46-4.75a7.43 7.43 0 01-3.73 3.66c-1.82.72-3.1-.82-2.37-2.55a7.49 7.49 0 013.74-3.66c1.85-.74 3.07.84 2.36 2.55-.38.89.07-.17 0 0zM31.87 42c.47.06.92.55 1.27 0l-2.23-2.63c-.6.26.05.55-.2 1s-2.55.78-3.17.89a14.93 14.93 0 011.16-2.84c.54-.44.88.43 1.28-.14-.92-1.08-1.83-2.17-2.74-3.25-.31-.37-.56-1-1-.68a9.41 9.41 0 01-.09 1.73c-.09.24-.94 3.64-1.93 4.47a20.88 20.88 0 01-2.7 2.1c-.54.19-.83-.6-1.22 0l2.49 3c.13.15.6.86.77.89.52.09.06-.89.11-1.09.15-.43 2.5-2.71 3.5-2.86a19.53 19.53 0 014.7-.59z"/>
    </g>
    <path fill="#dc6243" d="M25.61 22.86c-4-.17-2.35-4 .39-4.81s8.09 1.72 9.85 3.4c-2.79.85-6.39.73-9.45.87-.23-3.12-1-2-.79.54zM26.62 27.71c-2-1.58-1.39-5.27 1.77-4.15 4 2.09-.86 3.24-1.77 4.15zM35.11 35.41c-8.62-.07-2.79-13.33.14-12.52 3.37 1.07 3 12.62-.14 12.52zM41.22 31.08c-.84 2.5-2.36 3-2.19-.07.19-3.51 2.47-2.66 4.93-4 2-1.12 3.13-5.21 6.64-2.76 1.56 1.09 3.35.18 3.85 1.83 0-.08-4.55 10.31-2 10.31-5 0-2.78-5.92-.88-9.9-1.84.89-4.84 6.69-2.38 7.64-1.28 1.69-5.19 4-7.23 2.3-1.56-1.25-.7-3.32-.71-5.34zM45.32 40.68c-3.49 1-8.12-1.21-2.51-2.34 3.48-.7 7.19.78 2.51 2.34zM49.69 40.54c-.73-1.66.56-3.64 2.68-2.2 1.85 1.25-.85 3.11-2.68 2.2zM46.75 45.21c-2.42-.75-10.54-.56-5.22-2.77 1.64-.67 10.15.1 5.22 2.77zM50 44.85c0-1-.51-2.67 1.35-1.94 2.24.88-1.35 2.65-1.35 1.94zM57.18 48.52c-1.44-1.23-2.89-1.29-4.23 0-1.79-3.29-8.32-2.19-11.37-2.65 1.64 4 14.87 4.78 15.6 2.65zM55.28 51c-3.16-.15-6.67-.57-9.65.08 1.86.47 6.4 1.8 2.17 2.92 1.52 2.17 4 2 5.59.13A16.91 16.91 0 0151.83 53c1.68-.31 3.24-1.27 3.45-2.07zM58.87 47.07c-5.29-3.11-3.95-5.43.36-7.59 2.25-1.13 7.32-5.21 9.44-3.85l-9.8 11.44z"/>
    <path fill="#f49774" d="M55.11 39.79c-4.48-4.6 6.69-4.18 8.48-5.79 1.32.43 10.77-8.29 13.07-7.74-1.65 1.94-5.21 8.13-7.77 8.13-2 0-4-.29-5.47 1.11-2.23 2-5.91 3.09-8.31 4.29z"/>
    <path fill="#f4b1a4" d="M56.57 34.17c-2.45 1.32-4.77-3.91-.53-3.4 2.81.34 5.66-.24 8.34.22a8.64 8.64 0 01-7.81 3.18z"/>
    <g fill="#fff">
      <path d="M69.21 52.45a5.06 5.06 0 01.21 2c-.11.87-1 2.92-2.17 2.34a18.13 18.13 0 01-3.19-2.55c.8-.94 1.51-1.75 2.85-1.3.37.13.69 0 .3-.26s-3.11-2-3.26-1.8.53.87.22 1.47a6.9 6.9 0 01-.93 1.22c-.72-.6-1.92-1.25-1.06-2.25a3.71 3.71 0 012.1-1.32c.57-.12 1.84.38 2-.23L63 48.2c.18.8-3.35 4.52-4.13 5.46-.11.14-.66.61-.66.8 0 .43.62.09.65.08.49-.18 6.82 5.11 7 5.47s-.23.58 0 .73c0 0 .22.22.25.19.39-.47 4.52-6 5.37-6.22-.79-1.21-1.59-2.43-2.37-3.65-.61.26-.03.94.1 1.39zM63 59.15c-2.07-1.34-5.59 1.28-6.12 1.53-1 .5-1.79-.54-1.25-1.5A2.78 2.78 0 0158 57.89c.28 0 1.35.2 1.46 0s.23-.22 0-.35l-2.57-1.73c-.17 1.06-1.38 1.73-2.07 2.44a4.66 4.66 0 00-1.52 3.16A3 3 0 0055 64.1a3.34 3.34 0 003.33-.51 19 19 0 011.92-1.18c1-.46 2.31-.06 2 1.27A3.59 3.59 0 0159.79 66a3.22 3.22 0 01-1.87-.09c-.43-.14-1-.73-1.23-.11l3.48 2.54a2.29 2.29 0 011.09-1.56 12.18 12.18 0 002-2.13c1.15-1.65 1.53-4.05-.26-5.5zM63 59.15c.93.6-.59-.49 0 0zM99.74 19.63c-.73.73-8.42-2.34-9-2.77-.29-.11-.3-1.32-.7-.83s-.81 1-1.22 1.46L87.58 19c-.26.31-.54.46 0 .72.84-.42 5.42 7.34 5 8.46-.73.37-6.92-5.06-7.08-5.42-.06-.14.27-1-.22-.94-.22 0-.74.9-.88 1.07L83.48 24c.33.49.51 0 1 .05a13.16 13.16 0 012.24 1.66c-.73 0-2.69.13-2.94.11-.9.11-.42-.66-1-.93l-2.28 2.76c-.44.54-.88 1.08-1.33 1.61-.05.07 0 0 0 .11.33.28.11.17.57 0s6.56 4.93 6.78 5.19c.38.45-.15 1 .41 1.22l1.8-2.18c.09-.11.14-.1 0-.2-.43-.35-.48.21-1 .15s-4.4-3.37-5.9-4.61l8.2-.3c.3 0 1.14.9 1.07 1.21s-.46.56 0 .8c.48-.58 1-1.15 1.46-1.74l.23-.28a.84.84 0 00.21-.26l.16-.21c.43-.49 1.8-2 1.64-2.15-.46-.4-.69.46-1.3-.06a12.89 12.89 0 01-1.44-2.16c-.27-.45.61-.9 1-1.12.78-.48 3.25-1.18 3.48.35 0 .26-.27.55-.08.7s.2.25.27.17 2.36-2.85 3.3-4a.678.678 0 00-.29-.26zm-7.38 2.15l-.08.06.08-.05a5.83 5.83 0 00-1 .76l-1.56-2.7 3.52 1.49a3.72 3.72 0 00-.96.44zM82.62 33a5.48 5.48 0 10.59 7.6 5.38 5.38 0 00-.59-7.6zm-.28 6.61c-1.23 1.29-3.36.09-4.51-.73S74.69 36.34 76 34.8c1-1.28 3.12-.23 4.19.48s3.41 2.6 2.28 4.22c.02-.09.07-.15-.13.11z"/>
      <path d="M82.62 33c1.17 1-.26-.22 0 0zM82.31 39.64a.76.76 0 00.08-.11 1.5 1.5 0 00-.08.11zM76 42.12c.11.09.27.22-.07-.06-2.83-2.12-6.19-1.5-8.4 1.16l-3 3.57c.35.51.76-.12 1.27.17s6.25 5.1 6.34 5.37c.16.46-.25.55.15.87a41 41 0 005-6.2A4.34 4.34 0 0076 42.12zm-1.32 6.75c-.24.3 0 .06-.67.65-.3.3-6.44-4.67-6.19-4.94a4.35 4.35 0 013.58-1.3c2.22.56 5.24 3.26 3.31 5.59z"/>
    </g>
  </g>
</svg>
